{"title":"Shetland S03E03 x264 RB58.mp4","uid":13443349,"size":648428519,"categoryP":"video","categoryS":"tv_shows","magnet":"?xt=urn:btih:d3520824406f83968fd013315ffd017cdebf3e3f&amp;dn=Shetland+S03E03+x264+RB58.mp4&amp;tr=udp%3A%2F%2Ftracker.leechers-paradise.org%3A6969&amp;tr=udp%3A%2F%2Fzer0day.ch%3A1337&amp;tr=udp%3A%2F%2Fopen.demonii.com%3A1337&amp;tr=udp%3A%2F%2Ftracker.coppersurfer.tk%3A6969&amp;tr=udp%3A%2F%2Fexodus.desync.com%3A6969","seeders":0,"leechers":1,"uploader":"RedBaron58","files":1,"time":1454722090,"description":"Shetland S03E03 x264 mp4\r\n \nhttp://www.imdb.com/title/tt2396135/\r\n\r\nTrailer:\r\n\r\n\r\nPlease be patient My intial upload speed is limited.\r\nThank you for your kind comments and feedback on my other torrents, your feedback is welcome.\r\n\r\n\r\n\r\nAbout the Episode:\r\nMatters take an unexpected turn when prime suspect Michael Maguire is found dead in what appears \r\nto be a professional hit. Perez and Tosh head to Glasgow, trying to break a wall of silence \r\nregarding the details behind Maguire's demise and its connection with Robbie Morton. \r\nPerez is shaken after receiving a veiled threat from gangster Arthur McCall, \r\nbut evidence gleaned from Michael Thompson's apartment in Shetland gives a new trail to follow.\r\n \r\nStarring Douglas Henshall, with Ciaran Hinds\r\n\r\n\r\nI hope you enjoy.\r\n\r\n\r\nTechnical:\r\n\r\nGeneral\r\nComplete name                            : G:Shetland S03E03 x264 RB58.mp4\r\nFormat                                   : MPEG-4\r\nFormat profile                           : Base Media\r\nCodec ID                                 : isom\r\nFile size                                : 618 MiB\r\nDuration                                 : 56mn 51s\r\nOverall bit rate                         : 1 520 Kbps\r\nWriting application                      : Lavf54.63.104\r\n\r\nVideo\r\nID                                       : 1\r\nFormat                                   : AVC\r\nFormat/Info                              : Advanced Video Codec\r\nFormat profile                           :   \r\nFormat settings, CABAC                   : Yes\r\nFormat settings, ReFrames                : 4 frames\r\nCodec ID                                 : avc1\r\nCodec ID/Info                            : Advanced Video Coding\r\nDuration                                 : 56mn 51s\r\nBit rate                                 : 1 400 Kbps\r\nWidth                                    : 832 pixels\r\nHeight                                   : 468 pixels\r\nDisplay aspect ratio                     : 16:9\r\nFrame rate mode                          : Constant\r\nFrame rate                               : 25.000 fps\r\nColor space                              : YUV\r\nChroma subsampling                       : 4:2:0\r\nBit depth                                : 8 bits\r\nScan type                                : Progressive\r\nBits/(Pixel*Frame)                       : 0.144\r\nStream size                              : 569 MiB (92%)\r\nWriting library                          : x264 core 123 r2189 35cf912\r\nEncoding settings                        : cabac=1 / ref=3 / deblock=1:0:0\r\n\r\nAudio\r\nID                                       : 2\r\nFormat                                   : AAC\r\nFormat/Info                              : Advanced Audio Codec\r\nFormat profile                           : LC\r\nCodec ID                                 : 40\r\nDuration                                 : 56mn 51s\r\nBit rate mode                            : Constant\r\nBit rate                                 : 112 Kbps\r\nChannel(s)                               : 2 channels\r\nChannel positions                        : Front: L R\r\nSampling rate                            : 48.0 KHz\r\nCompression mode                         : Lossy\r\nStream size                              : 45.5 MiB (7%)","torrent":{"xt":"urn:btih:d3520824406f83968fd013315ffd017cdebf3e3f","amp;dn":"Shetland+S03E03+x264+RB58.mp4","amp;tr":["udp%3A%2F%2Ftracker.leechers-paradise.org%3A6969","udp%3A%2F%2Fzer0day.ch%3A1337","udp%3A%2F%2Fopen.demonii.com%3A1337","udp%3A%2F%2Ftracker.coppersurfer.tk%3A6969","udp%3A%2F%2Fexodus.desync.com%3A6969"],"infoHash":"d3520824406f83968fd013315ffd017cdebf3e3f","infoHashBuffer":{"type":"Buffer","data":[211,82,8,36,64,111,131,150,143,208,19,49,95,253,1,124,222,191,62,63]},"announce":[],"urlList":[]}}